<svg width="581" height="101" viewBox="0 0 581 101" fill="none" xmlns="http://www.w3.org/2000/svg">
<path d="M106.898 46H91.6168L68 26.9811L95.7844 24.2642L105.162 10L114.886 19.8491L126 21.5472L114.886 24.2642L106.898 46Z" fill="#1DB9DB"/>
<path d="M3 100L28.2245 1L46.7925 75.5124L55.9014 44.3781L61.5068 68.1661L69.2143 32.4841L77.9728 82.5088L83.2279 54.8728H106" stroke="#1DB9DB" stroke-width="5"/>
<path d="M159.84 82H149.785V41.6758H134.633V31.5859H174.957V41.6758H159.84V82ZM221.539 68.3945C221.539 70.3633 221.164 72.2266 220.414 73.9844C219.664 75.7188 218.633 77.2305 217.32 78.5195C216.031 79.8086 214.508 80.8281 212.75 81.5781C211.016 82.3281 209.152 82.7031 207.16 82.7031C205.379 82.7031 203.668 82.3984 202.027 81.7891C200.387 81.1562 198.898 80.2422 197.562 79.0469C196.25 80.2422 194.773 81.1562 193.133 81.7891C191.516 82.3984 189.805 82.7031 188 82.7031C186.008 82.7031 184.145 82.3281 182.41 81.5781C180.676 80.8281 179.152 79.8086 177.84 78.5195C176.551 77.2305 175.531 75.7188 174.781 73.9844C174.031 72.2266 173.656 70.3633 173.656 68.3945V44.418H183.254V68.3945C183.254 69.0508 183.371 69.6719 183.605 70.2578C183.863 70.8203 184.203 71.3242 184.625 71.7695C185.07 72.1914 185.574 72.5312 186.137 72.7891C186.723 73.0234 187.344 73.1406 188 73.1406C188.656 73.1406 189.277 73.0234 189.863 72.7891C190.449 72.5312 190.965 72.1914 191.41 71.7695C191.855 71.3242 192.195 70.8203 192.43 70.2578C192.688 69.6719 192.816 69.0508 192.816 68.3945V44.418H202.379V68.3945C202.379 69.0508 202.508 69.6719 202.766 70.2578C203.023 70.8203 203.363 71.3242 203.785 71.7695C204.23 72.1914 204.734 72.5312 205.297 72.7891C205.883 73.0234 206.504 73.1406 207.16 73.1406C207.816 73.1406 208.438 73.0234 209.023 72.7891C209.609 72.5312 210.113 72.1914 210.535 71.7695C210.98 71.3242 211.332 70.8203 211.59 70.2578C211.848 69.6719 211.977 69.0508 211.977 68.3945V44.418H221.539V68.3945ZM239.82 34.1172C239.82 35.0078 239.645 35.8398 239.293 36.6133C238.965 37.3867 238.508 38.0664 237.922 38.6523C237.336 39.2148 236.645 39.6719 235.848 40.0234C235.074 40.3516 234.242 40.5156 233.352 40.5156C232.461 40.5156 231.617 40.3516 230.82 40.0234C230.047 39.6719 229.367 39.2148 228.781 38.6523C228.219 38.0664 227.762 37.3867 227.41 36.6133C227.082 35.8398 226.918 35.0078 226.918 34.1172C226.918 33.25 227.082 32.4297 227.41 31.6562C227.762 30.8594 228.219 30.1797 228.781 29.6172C229.367 29.0312 230.047 28.5742 230.82 28.2461C231.617 27.8945 232.461 27.7188 233.352 27.7188C234.242 27.7188 235.074 27.8945 235.848 28.2461C236.645 28.5742 237.336 29.0312 237.922 29.6172C238.508 30.1797 238.965 30.8594 239.293 31.6562C239.645 32.4297 239.82 33.25 239.82 34.1172ZM238.168 82H228.5V44.3477H238.168V82ZM264.395 82C262.074 82 259.895 81.5664 257.855 80.6992C255.816 79.8086 254.023 78.6016 252.477 77.0781C250.953 75.5312 249.746 73.7383 248.855 71.6992C247.988 69.6602 247.555 67.4805 247.555 65.1602V53.9805H242.879V44.418H247.555V29.3711H257.117V44.418H271.672V53.9805H257.117V65.1602C257.117 66.168 257.305 67.1172 257.68 68.0078C258.055 68.875 258.57 69.6367 259.227 70.293C259.883 70.9492 260.656 71.4766 261.547 71.875C262.438 72.25 263.387 72.4375 264.395 72.4375H271.672V82H264.395ZM295.965 82C293.645 82 291.465 81.5664 289.426 80.6992C287.387 79.8086 285.594 78.6016 284.047 77.0781C282.523 75.5312 281.316 73.7383 280.426 71.6992C279.559 69.6602 279.125 67.4805 279.125 65.1602V53.9805H274.449V44.418H279.125V29.3711H288.688V44.418H303.242V53.9805H288.688V65.1602C288.688 66.168 288.875 67.1172 289.25 68.0078C289.625 68.875 290.141 69.6367 290.797 70.293C291.453 70.9492 292.227 71.4766 293.117 71.875C294.008 72.25 294.957 72.4375 295.965 72.4375H303.242V82H295.965ZM323.633 72.7891C324.008 72.9062 324.383 72.9883 324.758 73.0352C325.133 73.0586 325.508 73.0703 325.883 73.0703C326.82 73.0703 327.723 72.9414 328.59 72.6836C329.457 72.4258 330.266 72.0625 331.016 71.5938C331.789 71.1016 332.469 70.5156 333.055 69.8359C333.664 69.1328 334.156 68.3594 334.531 67.5156L341.562 74.582C340.672 75.8477 339.641 76.9844 338.469 77.9922C337.32 79 336.066 79.8555 334.707 80.5586C333.371 81.2617 331.953 81.7891 330.453 82.1406C328.977 82.5156 327.453 82.7031 325.883 82.7031C323.234 82.7031 320.738 82.2109 318.395 81.2266C316.074 80.2422 314.035 78.8711 312.277 77.1133C310.543 75.3555 309.172 73.2695 308.164 70.8555C307.156 68.418 306.652 65.7461 306.652 62.8398C306.652 59.8633 307.156 57.1445 308.164 54.6836C309.172 52.2227 310.543 50.125 312.277 48.3906C314.035 46.6562 316.074 45.3086 318.395 44.3477C320.738 43.3867 323.234 42.9062 325.883 42.9062C327.453 42.9062 328.988 43.0938 330.488 43.4688C331.988 43.8438 333.406 44.3828 334.742 45.0859C336.102 45.7891 337.367 46.6562 338.539 47.6875C339.711 48.6953 340.742 49.832 341.633 51.0977L323.633 72.7891ZM328.555 52.9961C328.109 52.832 327.664 52.7266 327.219 52.6797C326.797 52.6328 326.352 52.6094 325.883 52.6094C324.57 52.6094 323.328 52.8555 322.156 53.3477C321.008 53.8164 320 54.4961 319.133 55.3867C318.289 56.2773 317.621 57.3555 317.129 58.6211C316.637 59.8633 316.391 61.2695 316.391 62.8398C316.391 63.1914 316.402 63.5898 316.426 64.0352C316.473 64.4805 316.531 64.9375 316.602 65.4062C316.695 65.8516 316.801 66.2852 316.918 66.707C317.035 67.1289 317.188 67.5039 317.375 67.832L328.555 52.9961ZM356.082 82H346.484V44.3477H348.805L351.969 48.8125C353.516 47.4062 355.273 46.3281 357.242 45.5781C359.211 44.8047 361.25 44.418 363.359 44.418H371.832V53.9805H363.359C362.352 53.9805 361.402 54.168 360.512 54.543C359.621 54.918 358.848 55.4336 358.191 56.0898C357.535 56.7461 357.02 57.5195 356.645 58.4102C356.27 59.3008 356.082 60.25 356.082 61.2578V82ZM417.148 82H395.211V72.4375H417.148C417.805 72.4375 418.367 72.2031 418.836 71.7344C419.305 71.2656 419.539 70.7031 419.539 70.0469C419.539 69.3672 419.305 68.9219 418.836 68.7109C418.367 68.5 417.805 68.3945 417.148 68.3945H407.164C405.5 68.3945 403.941 68.0781 402.488 67.4453C401.035 66.8125 399.77 65.957 398.691 64.8789C397.613 63.7773 396.758 62.5 396.125 61.0469C395.516 59.5938 395.211 58.0352 395.211 56.3711C395.211 54.707 395.516 53.1484 396.125 51.6953C396.758 50.2422 397.613 48.9766 398.691 47.8984C399.77 46.8203 401.035 45.9766 402.488 45.3672C403.941 44.7344 405.5 44.418 407.164 44.418H426.605V53.9805H407.164C406.508 53.9805 405.945 54.2148 405.477 54.6836C405.008 55.1523 404.773 55.7148 404.773 56.3711C404.773 57.0508 405.008 57.6367 405.477 58.1289C405.945 58.5977 406.508 58.832 407.164 58.832H417.148C418.789 58.832 420.336 59.1133 421.789 59.6758C423.242 60.2148 424.508 60.9766 425.586 61.9609C426.664 62.9453 427.52 64.1289 428.152 65.5117C428.785 66.8945 429.102 68.4062 429.102 70.0469C429.102 71.7109 428.785 73.2695 428.152 74.7227C427.52 76.1523 426.664 77.418 425.586 78.5195C424.508 79.5977 423.242 80.4531 421.789 81.0859C420.336 81.6953 418.789 82 417.148 82ZM453.113 82C450.793 82 448.613 81.5664 446.574 80.6992C444.535 79.8086 442.742 78.6016 441.195 77.0781C439.672 75.5312 438.465 73.7383 437.574 71.6992C436.707 69.6602 436.273 67.4805 436.273 65.1602V53.9805H431.598V44.418H436.273V29.3711H445.836V44.418H460.391V53.9805H445.836V65.1602C445.836 66.168 446.023 67.1172 446.398 68.0078C446.773 68.875 447.289 69.6367 447.945 70.293C448.602 70.9492 449.375 71.4766 450.266 71.875C451.156 72.25 452.105 72.4375 453.113 72.4375H460.391V82H453.113ZM502.191 62.8398C502.191 65.6523 501.688 68.2773 500.68 70.7148C499.672 73.1289 498.301 75.2266 496.566 77.0078C494.832 78.7656 492.793 80.1602 490.449 81.1914C488.129 82.1992 485.633 82.7031 482.961 82.7031C480.312 82.7031 477.816 82.1992 475.473 81.1914C473.152 80.1602 471.113 78.7656 469.355 77.0078C467.621 75.2266 466.25 73.1289 465.242 70.7148C464.234 68.2773 463.73 65.6523 463.73 62.8398C463.73 59.9805 464.234 57.332 465.242 54.8945C466.25 52.457 467.621 50.3594 469.355 48.6016C471.113 46.8203 473.152 45.4258 475.473 44.418C477.816 43.4102 480.312 42.9062 482.961 42.9062C485.633 42.9062 488.129 43.3867 490.449 44.3477C492.793 45.2852 494.832 46.6328 496.566 48.3906C498.301 50.125 499.672 52.2227 500.68 54.6836C501.688 57.1211 502.191 59.8398 502.191 62.8398ZM492.523 62.8398C492.523 61.293 492.266 59.8984 491.75 58.6562C491.258 57.3906 490.578 56.3125 489.711 55.4219C488.844 54.5078 487.824 53.8164 486.652 53.3477C485.504 52.8555 484.273 52.6094 482.961 52.6094C481.648 52.6094 480.406 52.8555 479.234 53.3477C478.086 53.8164 477.078 54.5078 476.211 55.4219C475.367 56.3125 474.699 57.3906 474.207 58.6562C473.715 59.8984 473.469 61.293 473.469 62.8398C473.469 64.293 473.715 65.6406 474.207 66.8828C474.699 68.125 475.367 69.2031 476.211 70.1172C477.078 71.0312 478.086 71.7578 479.234 72.2969C480.406 72.8125 481.648 73.0703 482.961 73.0703C484.273 73.0703 485.504 72.8242 486.652 72.332C487.824 71.8398 488.844 71.1484 489.711 70.2578C490.578 69.3672 491.258 68.2891 491.75 67.0234C492.266 65.7578 492.523 64.3633 492.523 62.8398ZM540.406 51.8359L533.375 58.9023C533.023 57.918 532.543 57.0391 531.934 56.2656C531.324 55.4688 530.633 54.8008 529.859 54.2617C529.109 53.7227 528.289 53.3125 527.398 53.0312C526.508 52.75 525.594 52.6094 524.656 52.6094C523.344 52.6094 522.102 52.8789 520.93 53.418C519.781 53.957 518.773 54.7188 517.906 55.7031C517.062 56.6641 516.395 57.8125 515.902 59.1484C515.41 60.4844 515.164 61.9609 515.164 63.5781C515.164 64.8906 515.41 66.1211 515.902 67.2695C516.395 68.418 517.062 69.4258 517.906 70.293C518.773 71.1602 519.781 71.8398 520.93 72.332C522.102 72.8242 523.344 73.0703 524.656 73.0703C525.594 73.0703 526.496 72.9414 527.363 72.6836C528.23 72.4258 529.039 72.0625 529.789 71.5938C530.562 71.1016 531.242 70.5156 531.828 69.8359C532.438 69.1328 532.93 68.3594 533.305 67.5156L540.336 74.582C539.445 75.8477 538.414 76.9844 537.242 77.9922C536.094 79 534.84 79.8555 533.48 80.5586C532.145 81.2617 530.727 81.7891 529.227 82.1406C527.75 82.5156 526.227 82.7031 524.656 82.7031C522.008 82.7031 519.512 82.2109 517.168 81.2266C514.848 80.2188 512.809 78.8477 511.051 77.1133C509.316 75.3789 507.945 73.3516 506.938 71.0312C505.93 68.7109 505.426 66.2266 505.426 63.5781C505.426 60.6953 505.93 58 506.938 55.4922C507.945 52.9844 509.316 50.8047 511.051 48.9531C512.809 47.0781 514.848 45.6016 517.168 44.5234C519.512 43.4453 522.008 42.9062 524.656 42.9062C526.227 42.9062 527.762 43.1055 529.262 43.5039C530.785 43.9023 532.227 44.4883 533.586 45.2617C534.969 46.0117 536.234 46.9375 537.383 48.0391C538.555 49.1406 539.562 50.4062 540.406 51.8359ZM554.785 82H545.117V29.3711H554.785V62.5586L569.094 44.418H580.133L567.652 60.0977L580.133 82H569.094L561.465 68.3242L554.785 77.1836V82Z" fill="black"/>
</svg>
